<?xml version="1.0" encoding="iso-8859-1"?>
<!-- Uploaded to: SVG Repo, www.svgrepo.com, Generator: SVG Repo Mixer Tools -->
<svg height="800px" width="800px" version="1.1" id="Layer_1" xmlns="http://www.w3.org/2000/svg" xmlns:xlink="http://www.w3.org/1999/xlink" 
	 viewBox="0 0 512 512" xml:space="preserve">
<g>
	<circle style="fill:#F77935;" cx="101.922" cy="136.074" r="27.451"/>
	<circle style="fill:#F77935;" cx="185.465" cy="273.82" r="27.451"/>
	<circle style="fill:#F77935;" cx="297.97" cy="104.506" r="27.451"/>
	<circle style="fill:#F77935;" cx="381.513" cy="230.377" r="27.451"/>
	<circle style="fill:#F77935;" cx="476.195" cy="141.265" r="27.451"/>
</g>
<g>
	<circle style="fill:#3FC8F2;" cx="84.79" cy="369.616" r="27.451"/>
	<circle style="fill:#3FC8F2;" cx="164.301" cy="445.361" r="27.451"/>
	<circle style="fill:#3FC8F2;" cx="309.109" cy="331.821" r="27.451"/>
	<circle style="fill:#3FC8F2;" cx="476.195" cy="439.792" r="27.451"/>
</g>
<path d="M8.354,111.893c4.614,0,8.354-3.74,8.354-8.354V10.94c0-4.614-3.74-8.354-8.354-8.354S0,6.326,0,10.94v92.598
	C0,108.153,3.74,111.893,8.354,111.893z"/>
<path d="M476.195,475.6c19.744,0,35.805-16.063,35.805-35.806c0-19.744-16.063-35.805-35.805-35.805
	c-9.234,0-17.661,3.514-24.018,9.274l-110.16-67.341c1.862-4.33,2.897-9.095,2.897-14.1c0-19.744-16.063-35.806-35.806-35.806
	c-19.744,0-35.806,16.063-35.806,35.806c0,5.333,1.181,10.393,3.28,14.944l-90.048,70.561c-6.113-4.858-13.837-7.771-22.234-7.771
	c-7.366,0-14.219,2.238-19.918,6.066l-29.266-26.997c3.469-5.513,5.484-12.029,5.484-19.009c0-19.744-16.063-35.805-35.805-35.805
	s-35.806,16.063-35.806,35.805c0,7.219,2.155,13.943,5.846,19.572l-38.126,36.581V276.597l74.113-106.49
	c3.498,1.144,7.227,1.77,11.101,1.77c3.247,0,6.39-0.442,9.384-1.255l49.12,77.641c-6.638,6.503-10.766,15.557-10.766,25.561
	c0,19.744,16.063,35.807,35.807,35.807s35.805-16.063,35.805-35.807c0-9.016-3.357-17.259-8.878-23.56l74.367-111.755
	c3.529,1.166,7.295,1.807,11.209,1.807c3.792,0,7.446-0.597,10.878-1.695l44.964,69.1c-5.063,6.177-8.106,14.07-8.106,22.66
	c0,19.744,16.063,35.806,35.806,35.806c19.744,0,35.805-16.063,35.805-35.806c0-5.862-1.426-11.396-3.934-16.285l44.254-42.214
	c5.415,3.295,11.768,5.193,18.557,5.193c19.744,0,35.805-16.063,35.805-35.807c0-19.744-16.063-35.805-35.805-35.805
	c-19.744,0-35.806,16.063-35.806,35.805c0,6.911,1.974,13.367,5.379,18.845l-43.273,41.279c-5.9-4.283-13.149-6.817-20.982-6.817
	c-5.105,0-9.959,1.08-14.357,3.014l-44.016-67.642c6.562-6.494,10.637-15.498,10.637-25.438c0-19.744-16.063-35.805-35.806-35.805
	s-35.806,16.063-35.806,35.805c0,9.815,3.971,18.716,10.388,25.191l-73.79,110.888c-4.115-1.652-8.599-2.571-13.297-2.571
	c-3.73,0-7.329,0.575-10.714,1.639l-48.77-77.089c7.213-6.554,11.747-16.006,11.747-26.496c0-19.744-16.063-35.806-35.805-35.806
	s-35.806,16.063-35.806,35.806c0,9.849,3.998,18.78,10.455,25.26l-59.864,86.017V136.955c0-4.614-3.74-8.354-8.354-8.354
	S0,132.341,0,136.955V501.06c0,4.614,3.74,8.354,8.354,8.354h489.005c4.614,0,8.354-3.74,8.354-8.354s-3.74-8.354-8.354-8.354
	H16.709v-43.78l50.295-48.254c5.245,3.018,11.318,4.753,17.792,4.753c6.712,0,12.997-1.86,18.373-5.087l29.887,27.57
	c-2.9,5.169-4.56,11.121-4.56,17.457c0,19.744,16.063,35.806,35.806,35.806s35.805-16.063,35.805-35.806
	c0-5.312-1.172-10.354-3.256-14.892l90.07-70.578c6.105,4.837,13.812,7.735,22.188,7.735c8.683,0,16.652-3.109,22.857-8.269
	l110.767,67.712c-1.509,3.955-2.344,8.243-2.344,12.722C440.388,459.538,456.451,475.6,476.195,475.6z M476.195,122.17
	c10.531,0,19.097,8.567,19.097,19.097c0,10.531-8.567,19.098-19.097,19.098c-10.531,0-19.098-8.567-19.098-19.098
	C457.097,130.737,465.664,122.17,476.195,122.17z M400.611,230.38c0,10.531-8.567,19.098-19.098,19.098
	c-10.531,0-19.098-8.567-19.098-19.098s8.567-19.097,19.098-19.097C392.044,211.283,400.611,219.85,400.611,230.38z M297.97,85.411
	c10.531,0,19.098,8.567,19.098,19.097c0,10.531-8.567,19.098-19.098,19.098s-19.098-8.567-19.098-19.098
	C278.872,93.979,287.439,85.411,297.97,85.411z M204.562,273.822c0,10.531-8.567,19.098-19.097,19.098
	c-10.531,0-19.098-8.567-19.098-19.098c0-10.531,8.567-19.097,19.098-19.097C195.996,254.725,204.562,263.292,204.562,273.822z
	 M101.922,116.972c10.531,0,19.097,8.567,19.097,19.098s-8.566,19.097-19.097,19.097s-19.098-8.567-19.098-19.097
	S91.391,116.972,101.922,116.972z M476.195,420.697c10.531,0,19.097,8.567,19.097,19.097c0,10.531-8.567,19.098-19.097,19.098
	c-10.531,0-19.098-8.567-19.098-19.098C457.097,429.264,465.664,420.697,476.195,420.697z M65.698,369.618
	c0-10.531,8.567-19.097,19.098-19.097s19.097,8.567,19.097,19.097c0,10.531-8.567,19.098-19.097,19.098
	C74.265,388.716,65.698,380.149,65.698,369.618z M164.301,464.461c-10.531,0-19.098-8.567-19.098-19.098
	c0-10.531,8.567-19.097,19.098-19.097c5.192,0,9.9,2.089,13.346,5.461c0.292,0.774,0.705,1.518,1.242,2.204
	c0.528,0.673,1.144,1.232,1.811,1.697c1.701,2.855,2.697,6.177,2.697,9.734C183.398,455.894,174.832,464.461,164.301,464.461z
	 M290.011,331.822c0-10.531,8.567-19.098,19.098-19.098c10.531,0,19.098,8.567,19.098,19.098c0,10.531-8.567,19.098-19.098,19.098
	C298.578,350.92,290.011,342.353,290.011,331.822z"/>
</svg>